<?xml version="1.0" standalone="no"?><!DOCTYPE svg PUBLIC "-//W3C//DTD SVG 1.1//EN" "http://www.w3.org/Graphics/SVG/1.1/DTD/svg11.dtd"><svg width="100%" height="100%" viewBox="0 0 418 300" version="1.1" xmlns="http://www.w3.org/2000/svg" xmlns:xlink="http://www.w3.org/1999/xlink" xml:space="preserve" style="fill-rule:evenodd;clip-rule:evenodd;stroke-linejoin:round;stroke-miterlimit:1.41421;"><path d="M76,0l13,13c0,0 278.153,0 286,0c11.774,0 11,11 11,11l0,175l-386,0l0,101l418,0l0,-300l-342,0Z" style="fill:#fff;"/><clipPath id="_clip1"><path d="M76,0l13,13c0,0 278.153,0 286,0c11.774,0 11,11 11,11l0,175l-386,0l0,101l418,0l0,-300l-342,0Z"/></clipPath><g clip-path="url(#_clip1)"><g><path d="M-27.368,23.176l150,-259.808" style="fill:none;stroke-width:1px;stroke:#bababa;"/><path d="M40.645,62.443l150,-259.808" style="fill:none;stroke-width:1px;stroke:#bababa;"/><path d="M-13.765,31.029l150,-259.808" style="fill:none;stroke-width:1px;stroke:#bababa;"/><path d="M54.247,70.296l150,-259.808" style="fill:none;stroke-width:1px;stroke:#bababa;"/><path d="M-0.163,38.882l150,-259.807" style="fill:none;stroke-width:1px;stroke:#bababa;"/><path d="M67.85,78.149l150,-259.807" style="fill:none;stroke-width:1px;stroke:#bababa;"/><path d="M13.44,46.736l150,-259.808" style="fill:none;stroke-width:1px;stroke:#bababa;"/><path d="M81.452,86.003l150,-259.808" style="fill:none;stroke-width:1px;stroke:#bababa;"/><path d="M27.722,54.982l150,-259.808" style="fill:none;stroke-width:1px;stroke:#bababa;"/><path d="M95.735,94.249l150,-259.808" style="fill:none;stroke-width:1px;stroke:#bababa;"/><path d="M-20.567,27.102l150,-259.807" style="fill:none;stroke-width:1px;stroke:#bababa;"/><path d="M47.446,66.369l150,-259.807" style="fill:none;stroke-width:1px;stroke:#bababa;"/><path d="M-6.964,34.956l150,-259.808" style="fill:none;stroke-width:1px;stroke:#bababa;"/><path d="M61.048,74.223l150,-259.808" style="fill:none;stroke-width:1px;stroke:#bababa;"/><path d="M6.638,42.809l150,-259.808" style="fill:none;stroke-width:1px;stroke:#bababa;"/><path d="M74.651,82.076l150,-259.808" style="fill:none;stroke-width:1px;stroke:#bababa;"/><path d="M20.241,50.662l150,-259.807" style="fill:none;stroke-width:1px;stroke:#bababa;"/><path d="M88.253,89.929l150,-259.807" style="fill:none;stroke-width:1px;stroke:#bababa;"/><path d="M34.523,58.909l150,-259.808" style="fill:none;stroke-width:1px;stroke:#bababa;"/><path d="M102.536,98.176l150,-259.808" style="fill:none;stroke-width:1px;stroke:#bababa;"/><path d="M109.464,102.176l150,-259.808" style="fill:none;stroke-width:1px;stroke:#bababa;"/><path d="M177.477,141.443l150,-259.808" style="fill:none;stroke-width:1px;stroke:#bababa;"/><path d="M123.067,110.029l150,-259.808" style="fill:none;stroke-width:1px;stroke:#bababa;"/><path d="M191.079,149.296l150,-259.808" style="fill:none;stroke-width:1px;stroke:#bababa;"/><path d="M136.669,117.882l150,-259.807" style="fill:none;stroke-width:1px;stroke:#bababa;"/><path d="M204.682,157.149l150,-259.807" style="fill:none;stroke-width:1px;stroke:#bababa;"/><path d="M150.272,125.736l150,-259.808" style="fill:none;stroke-width:1px;stroke:#bababa;"/><path d="M218.284,165.003l150,-259.808" style="fill:none;stroke-width:1px;stroke:#bababa;"/><path d="M164.554,133.982l150,-259.808" style="fill:none;stroke-width:1px;stroke:#bababa;"/><path d="M232.567,173.249l150,-259.808" style="fill:none;stroke-width:1px;stroke:#bababa;"/><path d="M116.265,106.102l150,-259.807" style="fill:none;stroke-width:1px;stroke:#bababa;"/><path d="M184.278,145.369l150,-259.807" style="fill:none;stroke-width:1px;stroke:#bababa;"/><path d="M129.868,113.956l150,-259.808" style="fill:none;stroke-width:1px;stroke:#bababa;"/><path d="M197.88,153.223l150,-259.808" style="fill:none;stroke-width:1px;stroke:#bababa;"/><path d="M143.47,121.809l150,-259.808" style="fill:none;stroke-width:1px;stroke:#bababa;"/><path d="M211.483,161.076l150,-259.808" style="fill:none;stroke-width:1px;stroke:#bababa;"/><path d="M157.073,129.662l150,-259.807" style="fill:none;stroke-width:1px;stroke:#bababa;"/><path d="M225.085,168.929l150,-259.807" style="fill:none;stroke-width:1px;stroke:#bababa;"/><path d="M171.355,137.909l150,-259.808" style="fill:none;stroke-width:1px;stroke:#bababa;"/><path d="M239.368,177.176l150,-259.808" style="fill:none;stroke-width:1px;stroke:#bababa;"/></g><g><path d="M250.904,174.227l150,-259.808" style="fill:none;stroke-width:1px;stroke:#bababa;"/><path d="M318.916,213.494l150,-259.808" style="fill:none;stroke-width:1px;stroke:#bababa;"/><path d="M264.506,182.08l150,-259.808" style="fill:none;stroke-width:1px;stroke:#bababa;"/><path d="M332.519,221.347l150,-259.808" style="fill:none;stroke-width:1px;stroke:#bababa;"/><path d="M278.109,189.933l150,-259.807" style="fill:none;stroke-width:1px;stroke:#bababa;"/><path d="M291.711,197.787l150,-259.808" style="fill:none;stroke-width:1px;stroke:#bababa;"/><path d="M305.994,206.033l150,-259.808" style="fill:none;stroke-width:1px;stroke:#bababa;"/><path d="M257.705,178.153l150,-259.807" style="fill:none;stroke-width:1px;stroke:#bababa;"/><path d="M325.718,217.42l150,-259.807" style="fill:none;stroke-width:1px;stroke:#bababa;"/><path d="M271.308,186.007l150,-259.808" style="fill:none;stroke-width:1px;stroke:#bababa;"/><path d="M284.91,193.86l150,-259.807" style="fill:none;stroke-width:1px;stroke:#bababa;"/><path d="M298.513,201.714l150,-259.808" style="fill:none;stroke-width:1px;stroke:#bababa;"/><path d="M312.795,209.96l150,-259.808" style="fill:none;stroke-width:1px;stroke:#bababa;"/></g><g><path d="M-84.009,328.176l150,-259.808" style="fill:none;stroke-width:1px;stroke:#bababa;"/><path d="M-15.997,367.443l150,-259.808" style="fill:none;stroke-width:1px;stroke:#bababa;"/><path d="M-70.407,336.029l150,-259.808" style="fill:none;stroke-width:1px;stroke:#bababa;"/><path d="M-2.394,375.296l150,-259.808" style="fill:none;stroke-width:1px;stroke:#bababa;"/><path d="M-56.804,343.882l150,-259.807" style="fill:none;stroke-width:1px;stroke:#bababa;"/><path d="M11.208,383.149l150,-259.807" style="fill:none;stroke-width:1px;stroke:#bababa;"/><path d="M-43.202,351.736l150,-259.808" style="fill:none;stroke-width:1px;stroke:#bababa;"/><path d="M24.811,391.003l150,-259.808" style="fill:none;stroke-width:1px;stroke:#bababa;"/><path d="M-28.919,359.982l150,-259.808" style="fill:none;stroke-width:1px;stroke:#bababa;"/><path d="M39.093,399.249l150,-259.808" style="fill:none;stroke-width:1px;stroke:#bababa;"/><path d="M-77.208,332.102l150,-259.807" style="fill:none;stroke-width:1px;stroke:#bababa;"/><path d="M-9.195,371.369l150,-259.807" style="fill:none;stroke-width:1px;stroke:#bababa;"/><path d="M-63.605,339.956l150,-259.808" style="fill:none;stroke-width:1px;stroke:#bababa;"/><path d="M4.407,379.223l150,-259.808" style="fill:none;stroke-width:1px;stroke:#bababa;"/><path d="M-50.003,347.809l150,-259.808" style="fill:none;stroke-width:1px;stroke:#bababa;"/><path d="M18.009,387.076l150,-259.808" style="fill:none;stroke-width:1px;stroke:#bababa;"/><path d="M-36.4,355.662l150,-259.807" style="fill:none;stroke-width:1px;stroke:#bababa;"/><path d="M31.612,394.929l150,-259.807" style="fill:none;stroke-width:1px;stroke:#bababa;"/><path d="M-22.118,363.909l150,-259.808" style="fill:none;stroke-width:1px;stroke:#bababa;"/><path d="M45.895,403.176l150,-259.808" style="fill:none;stroke-width:1px;stroke:#bababa;"/><path d="M52.823,407.176l150,-259.808" style="fill:none;stroke-width:1px;stroke:#bababa;"/><path d="M120.835,446.443l150,-259.808" style="fill:none;stroke-width:1px;stroke:#bababa;"/><path d="M66.425,415.029l150,-259.808" style="fill:none;stroke-width:1px;stroke:#bababa;"/><path d="M134.438,454.296l150,-259.808" style="fill:none;stroke-width:1px;stroke:#bababa;"/><path d="M80.028,422.882l150,-259.807" style="fill:none;stroke-width:1px;stroke:#bababa;"/><path d="M148.04,462.149l150,-259.807" style="fill:none;stroke-width:1px;stroke:#bababa;"/><path d="M93.63,430.736l150,-259.808" style="fill:none;stroke-width:1px;stroke:#bababa;"/><path d="M161.643,470.003l150,-259.808" style="fill:none;stroke-width:1px;stroke:#bababa;"/><path d="M107.913,438.982l150,-259.808" style="fill:none;stroke-width:1px;stroke:#bababa;"/><path d="M175.925,478.249l150,-259.808" style="fill:none;stroke-width:1px;stroke:#bababa;"/><path d="M59.624,411.102l150,-259.807" style="fill:none;stroke-width:1px;stroke:#bababa;"/><path d="M127.637,450.369l150,-259.807" style="fill:none;stroke-width:1px;stroke:#bababa;"/><path d="M73.227,418.956l150,-259.808" style="fill:none;stroke-width:1px;stroke:#bababa;"/><path d="M141.239,458.223l150,-259.808" style="fill:none;stroke-width:1px;stroke:#bababa;"/><path d="M86.829,426.809l150,-259.808" style="fill:none;stroke-width:1px;stroke:#bababa;"/><path d="M154.842,466.076l150,-259.808" style="fill:none;stroke-width:1px;stroke:#bababa;"/><path d="M100.432,434.662l150,-259.807" style="fill:none;stroke-width:1px;stroke:#bababa;"/><path d="M168.444,473.929l150,-259.807" style="fill:none;stroke-width:1px;stroke:#bababa;"/><path d="M114.714,442.909l150,-259.808" style="fill:none;stroke-width:1px;stroke:#bababa;"/><path d="M182.727,482.176l150,-259.808" style="fill:none;stroke-width:1px;stroke:#bababa;"/></g><g><path d="M271.705,342.012l150,-259.807" style="fill:none;stroke-width:1px;stroke:#bababa;"/><path d="M339.718,381.279l150,-259.807" style="fill:none;stroke-width:1px;stroke:#bababa;"/><path d="M285.308,349.866l150,-259.808" style="fill:none;stroke-width:1px;stroke:#bababa;"/><path d="M353.32,389.133l150,-259.808" style="fill:none;stroke-width:1px;stroke:#bababa;"/><path d="M298.91,357.719l150,-259.808" style="fill:none;stroke-width:1px;stroke:#bababa;"/><path d="M366.923,396.986l150,-259.807" style="fill:none;stroke-width:1px;stroke:#bababa;"/><path d="M312.513,365.573l150,-259.808" style="fill:none;stroke-width:1px;stroke:#bababa;"/><path d="M380.525,404.84l150,-259.808" style="fill:none;stroke-width:1px;stroke:#bababa;"/><path d="M326.795,373.819l150,-259.808" style="fill:none;stroke-width:1px;stroke:#bababa;"/><path d="M394.808,413.086l150,-259.808" style="fill:none;stroke-width:1px;stroke:#bababa;"/><path d="M278.506,345.939l150,-259.808" style="fill:none;stroke-width:1px;stroke:#bababa;"/><path d="M346.519,385.206l150,-259.808" style="fill:none;stroke-width:1px;stroke:#bababa;"/><path d="M292.109,353.792l150,-259.807" style="fill:none;stroke-width:1px;stroke:#bababa;"/><path d="M360.121,393.059l150,-259.807" style="fill:none;stroke-width:1px;stroke:#bababa;"/><path d="M305.711,361.646l150,-259.808" style="fill:none;stroke-width:1px;stroke:#bababa;"/><path d="M373.724,400.913l150,-259.808" style="fill:none;stroke-width:1px;stroke:#bababa;"/><path d="M319.314,369.499l150,-259.807" style="fill:none;stroke-width:1px;stroke:#bababa;"/><path d="M387.326,408.766l150,-259.807" style="fill:none;stroke-width:1px;stroke:#bababa;"/><path d="M333.597,377.745l150,-259.807" style="fill:none;stroke-width:1px;stroke:#bababa;"/><path d="M401.609,417.012l150,-259.807" style="fill:none;stroke-width:1px;stroke:#bababa;"/><path d="M408.537,421.012l150,-259.807" style="fill:none;stroke-width:1px;stroke:#bababa;"/><path d="M415.339,424.939l150,-259.808" style="fill:none;stroke-width:1px;stroke:#bababa;"/></g></g><path d="M418.765,-1.848l0.649,0.434l0.434,0.649l0.152,0.765l0,300l-0.152,0.765l-0.434,0.649l-0.649,0.434l-0.765,0.152l-418,0l-0.765,-0.152l-0.649,-0.434l-0.434,-0.649l-0.152,-0.765l0,-101l0.152,-0.765l0.434,-0.649l0.649,-0.434l0.765,-0.152l384,0l0,-173.059l0.004,-0.074l0.003,-0.063l0.001,-0.045l0.002,-0.061l0,-0.073l0,-0.085l-0.001,-0.097l-0.002,-0.107l-0.004,-0.118l-0.006,-0.127l-0.008,-0.136l-0.011,-0.145l-0.013,-0.153l-0.017,-0.164l-0.009,-0.08l-0.01,-0.085l-0.011,-0.086l-0.012,-0.087l-0.012,-0.09l-0.014,-0.09l-0.015,-0.092l-0.016,-0.093l-0.016,-0.095l-0.018,-0.095l-0.019,-0.097l-0.02,-0.098l-0.021,-0.098l-0.023,-0.1l-0.023,-0.1l-0.025,-0.101l-0.026,-0.102l-0.027,-0.102l-0.029,-0.103l-0.03,-0.103l-0.031,-0.104l-0.033,-0.103l-0.034,-0.105l-0.035,-0.104l-0.037,-0.105l-0.038,-0.105l-0.04,-0.104l-0.042,-0.105l-0.042,-0.105l-0.045,-0.104l-0.046,-0.105l-0.047,-0.104l-0.049,-0.104l-0.051,-0.103l-0.053,-0.103l-0.054,-0.103l-0.055,-0.102l-0.058,-0.101l-0.059,-0.101l-0.061,-0.101l-0.062,-0.099l-0.065,-0.099l-0.066,-0.098l-0.068,-0.098l-0.07,-0.096l-0.072,-0.096l-0.074,-0.095l-0.076,-0.094l-0.077,-0.093l-0.08,-0.092l-0.082,-0.091l-0.087,-0.093l-0.04,-0.041l-0.043,-0.045l-0.044,-0.044l-0.045,-0.043l-0.045,-0.044l-0.045,-0.043l-0.046,-0.043l-0.047,-0.043l-0.047,-0.042l-0.048,-0.042l-0.049,-0.042l-0.049,-0.041l-0.05,-0.041l-0.05,-0.041l-0.051,-0.041l-0.052,-0.04l-0.052,-0.04l-0.053,-0.04l-0.054,-0.039l-0.054,-0.039l-0.055,-0.038l-0.056,-0.039l-0.057,-0.038l-0.057,-0.037l-0.057,-0.038l-0.059,-0.037l-0.06,-0.036l-0.06,-0.036l-0.06,-0.036l-0.062,-0.036l-0.062,-0.035l-0.064,-0.035l-0.064,-0.034l-0.065,-0.034l-0.065,-0.034l-0.067,-0.033l-0.067,-0.033l-0.068,-0.032l-0.069,-0.032l-0.07,-0.031l-0.071,-0.031l-0.072,-0.031l-0.073,-0.03l-0.073,-0.03l-0.074,-0.029l-0.076,-0.029l-0.076,-0.028l-0.078,-0.028l-0.078,-0.028l-0.079,-0.026l-0.08,-0.027l-0.082,-0.026l-0.082,-0.025l-0.083,-0.025l-0.085,-0.024l-0.085,-0.023l-0.086,-0.024l-0.088,-0.022l-0.088,-0.022l-0.09,-0.021l-0.09,-0.021l-0.092,-0.02l-0.093,-0.02l-0.094,-0.018l-0.095,-0.019l-0.096,-0.017l-0.098,-0.017l-0.098,-0.016l-0.1,-0.016l-0.1,-0.015l-0.102,-0.014l-0.104,-0.013l-0.104,-0.013l-0.105,-0.012l-0.107,-0.011l-0.108,-0.01l-0.109,-0.01l-0.11,-0.009l-0.112,-0.008l-0.112,-0.007l-0.114,-0.007l-0.116,-0.005l-0.116,-0.005l-0.118,-0.004l-0.119,-0.003l-0.12,-0.002l-0.121,-0.002l-0.127,0l-285.996,0l-0.765,-0.152l-0.649,-0.434l-13,-13l-0.434,-0.649l-0.152,-0.765l0.152,-0.765l0.434,-0.649l0.649,-0.434l0.765,-0.152l342,0l0.765,0.152ZM76,0l13,13l286,0l0.137,0.001l0.137,0.001l0.135,0.002l0.134,0.004l0.133,0.004l0.131,0.006l0.131,0.006l0.129,0.008l0.129,0.008l0.127,0.009l0.126,0.01l0.125,0.011l0.124,0.012l0.123,0.013l0.122,0.014l0.121,0.015l0.12,0.015l0.118,0.016l0.118,0.018l0.116,0.018l0.116,0.019l0.114,0.02l0.113,0.02l0.113,0.022l0.111,0.022l0.11,0.023l0.109,0.024l0.109,0.025l0.107,0.025l0.106,0.027l0.105,0.027l0.104,0.028l0.103,0.028l0.102,0.03l0.102,0.03l0.1,0.03l0.099,0.032l0.098,0.032l0.098,0.033l0.096,0.034l0.095,0.034l0.095,0.035l0.093,0.036l0.093,0.036l0.091,0.037l0.091,0.038l0.09,0.038l0.088,0.039l0.088,0.04l0.087,0.04l0.086,0.041l0.085,0.041l0.085,0.042l0.083,0.043l0.082,0.043l0.082,0.044l0.081,0.044l0.079,0.045l0.079,0.046l0.078,0.046l0.078,0.046l0.076,0.047l0.075,0.048l0.075,0.048l0.074,0.048l0.073,0.049l0.072,0.05l0.071,0.05l0.071,0.051l0.069,0.051l0.069,0.051l0.068,0.052l0.067,0.052l0.067,0.053l0.065,0.053l0.065,0.054l0.064,0.054l0.063,0.054l0.063,0.055l0.062,0.055l0.061,0.056l0.06,0.056l0.059,0.056l0.059,0.057l0.058,0.057l0.057,0.057l0.056,0.058l0.056,0.058l0.109,0.117l0.107,0.118l0.103,0.119l0.101,0.12l0.098,0.122l0.095,0.122l0.092,0.123l0.09,0.124l0.087,0.125l0.085,0.125l0.082,0.126l0.08,0.127l0.077,0.127l0.075,0.128l0.072,0.128l0.07,0.128l0.068,0.129l0.065,0.128l0.063,0.129l0.061,0.129l0.059,0.129l0.057,0.129l0.055,0.128l0.052,0.129l0.051,0.128l0.048,0.128l0.047,0.128l0.045,0.127l0.043,0.127l0.041,0.126l0.039,0.125l0.038,0.125l0.036,0.124l0.034,0.123l0.033,0.122l0.031,0.122l0.03,0.12l0.028,0.119l0.026,0.118l0.025,0.117l0.024,0.116l0.022,0.114l0.021,0.113l0.02,0.112l0.019,0.11l0.017,0.108l0.016,0.107l0.015,0.105l0.014,0.103l0.013,0.102l0.012,0.1l0.011,0.097l0.019,0.189l0.016,0.181l0.012,0.172l0.01,0.162l0.007,0.152l0.005,0.141l0.003,0.131l0.001,0.118l0,0.107l-0.001,0.094l-0.001,0.081l-0.002,0.067l-0.004,0.092l-0.002,0.032l0,175l-386,0l0,101l418,0l0,-300l-342,0Z" style="fill:#000;"/><path d="M296,26.75c0,-7.037 -5.713,-12.75 -12.75,-12.75l-148.5,0c-7.037,0 -12.75,5.713 -12.75,12.75l0,25.5c0,7.037 5.713,12.75 12.75,12.75l148.5,0c7.037,0 12.75,-5.713 12.75,-12.75l0,-25.5Z" style="fill:#fff;stroke-width:2px;stroke-linecap:round;stroke:#000;"/><path d="M21,198l0,50c0,0 -2.479,15 15,15c17.479,0 318.797,0 334,0c15.203,0 15,-15 15,-15l0,-50l-364,0Z" style="fill:#fff;stroke-width:2px;stroke-linecap:round;stroke:#000;"/></svg>