<?xml version="1.0" standalone="no"?><!DOCTYPE svg PUBLIC "-//W3C//DTD SVG 1.1//EN" "http://www.w3.org/Graphics/SVG/1.1/DTD/svg11.dtd"><svg width="100%" height="100%" viewBox="0 0 300 419" version="1.1" xmlns="http://www.w3.org/2000/svg" xmlns:xlink="http://www.w3.org/1999/xlink" xml:space="preserve" style="fill-rule:evenodd;clip-rule:evenodd;stroke-linejoin:round;stroke-miterlimit:1.41421;"><path d="M4.107,-21.331l55.893,68.88l0,45.451l-39.829,0l-22.435,27.438l-68.129,-55.706l33.662,-41.17l-0.536,-11.482l41.374,-33.411Z" style="fill:#fff;"/><clipPath id="_clip1"><path d="M4.107,-21.331l55.893,68.88l0,45.451l-39.829,0l-22.435,27.438l-68.129,-55.706l33.662,-41.17l-0.536,-11.482l41.374,-33.411Z"/></clipPath><g clip-path="url(#_clip1)"><g><path d="M-102.627,134.724l150,-259.808" style="fill:none;stroke-width:1px;stroke:#b9b9b9;"/><path d="M-90.025,142.577l150,-259.807" style="fill:none;stroke-width:1px;stroke:#b9b9b9;"/><path d="M-144.435,111.164l150,-259.808" style="fill:none;stroke-width:1px;stroke:#b9b9b9;"/><path d="M-76.422,150.431l150,-259.808" style="fill:none;stroke-width:1px;stroke:#b9b9b9;"/><path d="M-130.832,119.017l150,-259.807" style="fill:none;stroke-width:1px;stroke:#b9b9b9;"/><path d="M-62.82,158.284l150,-259.807" style="fill:none;stroke-width:1px;stroke:#b9b9b9;"/><path d="M-116.55,127.263l150,-259.807" style="fill:none;stroke-width:1px;stroke:#b9b9b9;"/><path d="M-48.537,166.53l150,-259.807" style="fill:none;stroke-width:1px;stroke:#b9b9b9;"/><path d="M-96.826,138.651l150,-259.808" style="fill:none;stroke-width:1px;stroke:#b9b9b9;"/><path d="M-83.223,146.504l150,-259.808" style="fill:none;stroke-width:1px;stroke:#b9b9b9;"/><path d="M-137.633,115.09l150,-259.807" style="fill:none;stroke-width:1px;stroke:#b9b9b9;"/><path d="M-69.621,154.357l150,-259.807" style="fill:none;stroke-width:1px;stroke:#b9b9b9;"/><path d="M-124.031,122.944l150,-259.808" style="fill:none;stroke-width:1px;stroke:#b9b9b9;"/><path d="M-56.018,162.211l150,-259.808" style="fill:none;stroke-width:1px;stroke:#b9b9b9;"/><path d="M-109.748,131.19l150,-259.808" style="fill:none;stroke-width:1px;stroke:#b9b9b9;"/><path d="M-41.736,170.457l150,-259.808" style="fill:none;stroke-width:1px;stroke:#b9b9b9;"/><path d="M-34.808,174.457l150,-259.808" style="fill:none;stroke-width:1px;stroke:#b9b9b9;"/><path d="M33.205,213.724l150,-259.808" style="fill:none;stroke-width:1px;stroke:#b9b9b9;"/><path d="M-21.205,182.31l150,-259.807" style="fill:none;stroke-width:1px;stroke:#b9b9b9;"/><path d="M46.807,221.577l150,-259.807" style="fill:none;stroke-width:1px;stroke:#b9b9b9;"/><path d="M-7.603,190.164l150,-259.808" style="fill:none;stroke-width:1px;stroke:#b9b9b9;"/><path d="M60.41,229.431l150,-259.808" style="fill:none;stroke-width:1px;stroke:#b9b9b9;"/><path d="M6,198.017l150,-259.807" style="fill:none;stroke-width:1px;stroke:#b9b9b9;"/><path d="M74.012,237.284l150,-259.807" style="fill:none;stroke-width:1px;stroke:#b9b9b9;"/><path d="M20.282,206.263l150,-259.807" style="fill:none;stroke-width:1px;stroke:#b9b9b9;"/><path d="M88.295,245.53l150,-259.807" style="fill:none;stroke-width:1px;stroke:#b9b9b9;"/><path d="M-28.006,178.384l150,-259.808" style="fill:none;stroke-width:1px;stroke:#b9b9b9;"/><path d="M40.006,217.651l150,-259.808" style="fill:none;stroke-width:1px;stroke:#b9b9b9;"/><path d="M-14.404,186.237l150,-259.808" style="fill:none;stroke-width:1px;stroke:#b9b9b9;"/><path d="M53.609,225.504l150,-259.808" style="fill:none;stroke-width:1px;stroke:#b9b9b9;"/><path d="M-0.801,194.09l150,-259.807" style="fill:none;stroke-width:1px;stroke:#b9b9b9;"/><path d="M67.211,233.357l150,-259.807" style="fill:none;stroke-width:1px;stroke:#b9b9b9;"/><path d="M12.801,201.944l150,-259.808" style="fill:none;stroke-width:1px;stroke:#b9b9b9;"/><path d="M80.814,241.211l150,-259.808" style="fill:none;stroke-width:1px;stroke:#b9b9b9;"/><path d="M27.084,210.19l150,-259.808" style="fill:none;stroke-width:1px;stroke:#b9b9b9;"/><path d="M95.096,249.457l150,-259.808" style="fill:none;stroke-width:1px;stroke:#b9b9b9;"/></g></g><path d="M4.107,-21.331l55.893,68.88l0,45.451l-39.829,0l-22.435,27.438l-68.129,-55.706l33.662,-41.17l-0.536,-11.482l41.374,-33.411Z" style="fill:none;stroke-width:2px;stroke-linecap:round;stroke:#000;"/><path d="M178.58,-11l115.135,-35.613l-79.516,106.613l-0.199,-0.148l0,0.148l-132.736,0l-82.843,-104.05l116.589,33.05l63.57,0Z" style="fill:#fff;"/><clipPath id="_clip2"><path d="M178.58,-11l115.135,-35.613l-79.516,106.613l-0.199,-0.148l0,0.148l-132.736,0l-82.843,-104.05l116.589,33.05l63.57,0Z"/></clipPath><g clip-path="url(#_clip2)"><g><path d="M-49.328,100.457l150,-259.808" style="fill:none;stroke-width:1px;stroke:#b9b9b9;"/><path d="M18.684,139.724l150,-259.808" style="fill:none;stroke-width:1px;stroke:#b9b9b9;"/><path d="M-35.726,108.31l150,-259.807" style="fill:none;stroke-width:1px;stroke:#b9b9b9;"/><path d="M32.287,147.577l150,-259.807" style="fill:none;stroke-width:1px;stroke:#b9b9b9;"/><path d="M-22.123,116.164l150,-259.808" style="fill:none;stroke-width:1px;stroke:#b9b9b9;"/><path d="M45.889,155.431l150,-259.808" style="fill:none;stroke-width:1px;stroke:#b9b9b9;"/><path d="M-8.521,124.017l150,-259.807" style="fill:none;stroke-width:1px;stroke:#b9b9b9;"/><path d="M59.492,163.284l150,-259.807" style="fill:none;stroke-width:1px;stroke:#b9b9b9;"/><path d="M5.762,132.263l150,-259.807" style="fill:none;stroke-width:1px;stroke:#b9b9b9;"/><path d="M73.774,171.53l150,-259.807" style="fill:none;stroke-width:1px;stroke:#b9b9b9;"/><path d="M-42.527,104.384l150,-259.808" style="fill:none;stroke-width:1px;stroke:#b9b9b9;"/><path d="M25.485,143.651l150,-259.808" style="fill:none;stroke-width:1px;stroke:#b9b9b9;"/><path d="M-28.925,112.237l150,-259.808" style="fill:none;stroke-width:1px;stroke:#b9b9b9;"/><path d="M39.088,151.504l150,-259.808" style="fill:none;stroke-width:1px;stroke:#b9b9b9;"/><path d="M-15.322,120.09l150,-259.807" style="fill:none;stroke-width:1px;stroke:#b9b9b9;"/><path d="M52.69,159.357l150,-259.807" style="fill:none;stroke-width:1px;stroke:#b9b9b9;"/><path d="M-1.72,127.944l150,-259.808" style="fill:none;stroke-width:1px;stroke:#b9b9b9;"/><path d="M66.293,167.211l150,-259.808" style="fill:none;stroke-width:1px;stroke:#b9b9b9;"/><path d="M12.563,136.19l150,-259.808" style="fill:none;stroke-width:1px;stroke:#b9b9b9;"/><path d="M80.575,175.457l150,-259.808" style="fill:none;stroke-width:1px;stroke:#b9b9b9;"/><path d="M87.504,179.457l150,-259.808" style="fill:none;stroke-width:1px;stroke:#b9b9b9;"/><path d="M155.516,218.724l150,-259.808" style="fill:none;stroke-width:1px;stroke:#b9b9b9;"/><path d="M101.106,187.31l150,-259.807" style="fill:none;stroke-width:1px;stroke:#b9b9b9;"/><path d="M169.119,226.577l150,-259.807" style="fill:none;stroke-width:1px;stroke:#b9b9b9;"/><path d="M114.709,195.164l150,-259.808" style="fill:none;stroke-width:1px;stroke:#b9b9b9;"/><path d="M182.721,234.431l150,-259.808" style="fill:none;stroke-width:1px;stroke:#b9b9b9;"/><path d="M128.311,203.017l150,-259.807" style="fill:none;stroke-width:1px;stroke:#b9b9b9;"/><path d="M196.324,242.284l150,-259.807" style="fill:none;stroke-width:1px;stroke:#b9b9b9;"/><path d="M142.594,211.263l150,-259.807" style="fill:none;stroke-width:1px;stroke:#b9b9b9;"/><path d="M210.606,250.53l150,-259.807" style="fill:none;stroke-width:1px;stroke:#b9b9b9;"/><path d="M94.305,183.384l150,-259.808" style="fill:none;stroke-width:1px;stroke:#b9b9b9;"/><path d="M162.317,222.651l150,-259.808" style="fill:none;stroke-width:1px;stroke:#b9b9b9;"/><path d="M107.907,191.237l150,-259.808" style="fill:none;stroke-width:1px;stroke:#b9b9b9;"/><path d="M175.92,230.504l150,-259.808" style="fill:none;stroke-width:1px;stroke:#b9b9b9;"/><path d="M121.51,199.09l150,-259.807" style="fill:none;stroke-width:1px;stroke:#b9b9b9;"/><path d="M189.522,238.357l150,-259.807" style="fill:none;stroke-width:1px;stroke:#b9b9b9;"/><path d="M135.112,206.944l150,-259.808" style="fill:none;stroke-width:1px;stroke:#b9b9b9;"/><path d="M203.125,246.211l150,-259.808" style="fill:none;stroke-width:1px;stroke:#b9b9b9;"/><path d="M149.395,215.19l150,-259.808" style="fill:none;stroke-width:1px;stroke:#b9b9b9;"/><path d="M217.407,254.457l150,-259.808" style="fill:none;stroke-width:1px;stroke:#b9b9b9;"/></g></g><path d="M178.58,-11l115.135,-35.613l-79.516,106.613l-0.199,-0.148l0,0.148l-132.736,0l-82.843,-104.05l116.589,33.05l63.57,0Z" style="fill:none;stroke-width:2px;stroke-linecap:round;stroke:#000;"/><path d="M61.24,34.85l7.828,-6.85l0,-15l156,0l0,15l7.865,6.882l-18.734,25.118l-0.199,-0.148l0,0.148l-132.736,0l-20.024,-25.15Z" style="fill:#fff;stroke-width:2px;stroke-linecap:round;stroke:#000;"/><rect x="258" y="29" width="51" height="40" style="fill:#fff;"/><clipPath id="_clip3"><rect x="258" y="29" width="51" height="40"/></clipPath><g clip-path="url(#_clip3)"><g><path d="M-49.328,101.457l150,-259.808" style="fill:none;stroke-width:1px;stroke:#b9b9b9;"/><path d="M18.684,140.724l150,-259.808" style="fill:none;stroke-width:1px;stroke:#b9b9b9;"/><path d="M-35.726,109.31l150,-259.807" style="fill:none;stroke-width:1px;stroke:#b9b9b9;"/><path d="M32.287,148.577l150,-259.807" style="fill:none;stroke-width:1px;stroke:#b9b9b9;"/><path d="M-22.123,117.164l150,-259.808" style="fill:none;stroke-width:1px;stroke:#b9b9b9;"/><path d="M45.889,156.431l150,-259.808" style="fill:none;stroke-width:1px;stroke:#b9b9b9;"/><path d="M-8.521,125.017l150,-259.807" style="fill:none;stroke-width:1px;stroke:#b9b9b9;"/><path d="M59.492,164.284l150,-259.807" style="fill:none;stroke-width:1px;stroke:#b9b9b9;"/><path d="M5.762,133.263l150,-259.807" style="fill:none;stroke-width:1px;stroke:#b9b9b9;"/><path d="M73.774,172.53l150,-259.807" style="fill:none;stroke-width:1px;stroke:#b9b9b9;"/><path d="M-42.527,105.384l150,-259.808" style="fill:none;stroke-width:1px;stroke:#b9b9b9;"/><path d="M25.485,144.651l150,-259.808" style="fill:none;stroke-width:1px;stroke:#b9b9b9;"/><path d="M-28.925,113.237l150,-259.808" style="fill:none;stroke-width:1px;stroke:#b9b9b9;"/><path d="M39.088,152.504l150,-259.808" style="fill:none;stroke-width:1px;stroke:#b9b9b9;"/><path d="M-15.322,121.09l150,-259.807" style="fill:none;stroke-width:1px;stroke:#b9b9b9;"/><path d="M52.69,160.357l150,-259.807" style="fill:none;stroke-width:1px;stroke:#b9b9b9;"/><path d="M-1.72,128.944l150,-259.808" style="fill:none;stroke-width:1px;stroke:#b9b9b9;"/><path d="M66.293,168.211l150,-259.808" style="fill:none;stroke-width:1px;stroke:#b9b9b9;"/><path d="M12.563,137.19l150,-259.808" style="fill:none;stroke-width:1px;stroke:#b9b9b9;"/><path d="M80.575,176.457l150,-259.808" style="fill:none;stroke-width:1px;stroke:#b9b9b9;"/><path d="M87.504,180.457l150,-259.808" style="fill:none;stroke-width:1px;stroke:#b9b9b9;"/><path d="M155.516,219.724l150,-259.808" style="fill:none;stroke-width:1px;stroke:#b9b9b9;"/><path d="M101.106,188.31l150,-259.807" style="fill:none;stroke-width:1px;stroke:#b9b9b9;"/><path d="M169.119,227.577l150,-259.807" style="fill:none;stroke-width:1px;stroke:#b9b9b9;"/><path d="M114.709,196.164l150,-259.808" style="fill:none;stroke-width:1px;stroke:#b9b9b9;"/><path d="M182.721,235.431l150,-259.808" style="fill:none;stroke-width:1px;stroke:#b9b9b9;"/><path d="M128.311,204.017l150,-259.807" style="fill:none;stroke-width:1px;stroke:#b9b9b9;"/><path d="M196.324,243.284l150,-259.807" style="fill:none;stroke-width:1px;stroke:#b9b9b9;"/><path d="M142.594,212.263l150,-259.807" style="fill:none;stroke-width:1px;stroke:#b9b9b9;"/><path d="M210.606,251.53l150,-259.807" style="fill:none;stroke-width:1px;stroke:#b9b9b9;"/><path d="M94.305,184.384l150,-259.808" style="fill:none;stroke-width:1px;stroke:#b9b9b9;"/><path d="M162.317,223.651l150,-259.808" style="fill:none;stroke-width:1px;stroke:#b9b9b9;"/><path d="M107.907,192.237l150,-259.808" style="fill:none;stroke-width:1px;stroke:#b9b9b9;"/><path d="M175.92,231.504l150,-259.808" style="fill:none;stroke-width:1px;stroke:#b9b9b9;"/><path d="M121.51,200.09l150,-259.807" style="fill:none;stroke-width:1px;stroke:#b9b9b9;"/><path d="M189.522,239.357l150,-259.807" style="fill:none;stroke-width:1px;stroke:#b9b9b9;"/><path d="M135.112,207.944l150,-259.808" style="fill:none;stroke-width:1px;stroke:#b9b9b9;"/><path d="M203.125,247.211l150,-259.808" style="fill:none;stroke-width:1px;stroke:#b9b9b9;"/><path d="M149.395,216.19l150,-259.808" style="fill:none;stroke-width:1px;stroke:#b9b9b9;"/><path d="M217.407,255.457l150,-259.808" style="fill:none;stroke-width:1px;stroke:#b9b9b9;"/></g></g><path d="M309.196,27.01l0.194,0.028l0.191,0.048l0.184,0.066l0.178,0.084l0.168,0.101l0.158,0.117l0.145,0.132l0.132,0.145l0.117,0.158l0.101,0.168l0.084,0.178l0.066,0.184l0.048,0.191l0.028,0.194l0.01,0.196l0,40l-0.01,0.196l-0.028,0.194l-0.048,0.191l-0.066,0.184l-0.084,0.178l-0.101,0.168l-0.117,0.158l-0.132,0.145l-0.145,0.132l-0.158,0.117l-0.168,0.101l-0.178,0.084l-0.184,0.066l-0.191,0.048l-0.194,0.028l-0.196,0.01l-51,0l-0.196,-0.01l-0.194,-0.028l-0.191,-0.048l-0.184,-0.066l-0.178,-0.084l-0.168,-0.101l-0.158,-0.117l-0.145,-0.132l-0.132,-0.145l-0.117,-0.158l-0.101,-0.168l-0.084,-0.178l-0.066,-0.184l-0.048,-0.191l-0.028,-0.194l-0.01,-0.196l0,-40l0.01,-0.196l0.028,-0.194l0.048,-0.191l0.066,-0.184l0.084,-0.178l0.101,-0.168l0.117,-0.158l0.132,-0.145l0.145,-0.132l0.158,-0.117l0.168,-0.101l0.178,-0.084l0.184,-0.066l0.191,-0.048l0.194,-0.028l0.196,-0.01l51,0l0.196,0.01ZM258,29l0,40l51,0l0,-40l-51,0Z" style="fill:#000;"/></svg>