<?xml version="1.0" standalone="no"?><!DOCTYPE svg PUBLIC "-//W3C//DTD SVG 1.1//EN" "http://www.w3.org/Graphics/SVG/1.1/DTD/svg11.dtd"><svg width="100%" height="100%" viewBox="0 0 300 419" version="1.1" xmlns="http://www.w3.org/2000/svg" xmlns:xlink="http://www.w3.org/1999/xlink" xml:space="preserve" style="fill-rule:evenodd;clip-rule:evenodd;stroke-linejoin:round;stroke-miterlimit:1.41421;"><rect x="67.5" y="276.5" width="161" height="9" style="fill:#fff;"/><clipPath id="_clip1"><rect x="67.5" y="276.5" width="161" height="9"/></clipPath><g clip-path="url(#_clip1)"><g><path d="M-1.368,316.176l150,-259.808" style="fill:none;stroke-width:1px;stroke:#bababa;"/><path d="M66.645,355.443l150,-259.808" style="fill:none;stroke-width:1px;stroke:#bababa;"/><path d="M12.235,324.029l150,-259.808" style="fill:none;stroke-width:1px;stroke:#bababa;"/><path d="M80.247,363.296l150,-259.808" style="fill:none;stroke-width:1px;stroke:#bababa;"/><path d="M25.837,331.882l150,-259.807" style="fill:none;stroke-width:1px;stroke:#bababa;"/><path d="M93.85,371.149l150,-259.807" style="fill:none;stroke-width:1px;stroke:#bababa;"/><path d="M39.44,339.736l150,-259.808" style="fill:none;stroke-width:1px;stroke:#bababa;"/><path d="M107.452,379.003l150,-259.808" style="fill:none;stroke-width:1px;stroke:#bababa;"/><path d="M53.722,347.982l150,-259.808" style="fill:none;stroke-width:1px;stroke:#bababa;"/><path d="M121.735,387.249l150,-259.808" style="fill:none;stroke-width:1px;stroke:#bababa;"/><path d="M5.433,320.102l150,-259.807" style="fill:none;stroke-width:1px;stroke:#bababa;"/><path d="M73.446,359.369l150,-259.807" style="fill:none;stroke-width:1px;stroke:#bababa;"/><path d="M19.036,327.956l150,-259.808" style="fill:none;stroke-width:1px;stroke:#bababa;"/><path d="M87.048,367.223l150,-259.808" style="fill:none;stroke-width:1px;stroke:#bababa;"/><path d="M32.638,335.809l150,-259.808" style="fill:none;stroke-width:1px;stroke:#bababa;"/><path d="M100.651,375.076l150,-259.808" style="fill:none;stroke-width:1px;stroke:#bababa;"/><path d="M46.241,343.662l150,-259.807" style="fill:none;stroke-width:1px;stroke:#bababa;"/><path d="M114.253,382.929l150,-259.807" style="fill:none;stroke-width:1px;stroke:#bababa;"/><path d="M60.523,351.909l150,-259.808" style="fill:none;stroke-width:1px;stroke:#bababa;"/><path d="M128.536,391.176l150,-259.808" style="fill:none;stroke-width:1px;stroke:#bababa;"/><path d="M135.464,395.176l150,-259.808" style="fill:none;stroke-width:1px;stroke:#bababa;"/><path d="M203.477,434.443l150,-259.808" style="fill:none;stroke-width:1px;stroke:#bababa;"/><path d="M149.067,403.029l150,-259.808" style="fill:none;stroke-width:1px;stroke:#bababa;"/><path d="M217.079,442.296l150,-259.808" style="fill:none;stroke-width:1px;stroke:#bababa;"/><path d="M162.669,410.882l150,-259.807" style="fill:none;stroke-width:1px;stroke:#bababa;"/><path d="M230.682,450.149l150,-259.807" style="fill:none;stroke-width:1px;stroke:#bababa;"/><path d="M176.272,418.736l150,-259.808" style="fill:none;stroke-width:1px;stroke:#bababa;"/><path d="M244.284,458.003l150,-259.808" style="fill:none;stroke-width:1px;stroke:#bababa;"/><path d="M190.554,426.982l150,-259.808" style="fill:none;stroke-width:1px;stroke:#bababa;"/><path d="M258.567,466.249l150,-259.808" style="fill:none;stroke-width:1px;stroke:#bababa;"/><path d="M142.265,399.102l150,-259.807" style="fill:none;stroke-width:1px;stroke:#bababa;"/><path d="M210.278,438.369l150,-259.807" style="fill:none;stroke-width:1px;stroke:#bababa;"/><path d="M155.868,406.956l150,-259.808" style="fill:none;stroke-width:1px;stroke:#bababa;"/><path d="M223.88,446.223l150,-259.808" style="fill:none;stroke-width:1px;stroke:#bababa;"/><path d="M169.47,414.809l150,-259.808" style="fill:none;stroke-width:1px;stroke:#bababa;"/><path d="M237.483,454.076l150,-259.808" style="fill:none;stroke-width:1px;stroke:#bababa;"/><path d="M183.073,422.662l150,-259.807" style="fill:none;stroke-width:1px;stroke:#bababa;"/><path d="M251.085,461.929l150,-259.807" style="fill:none;stroke-width:1px;stroke:#bababa;"/><path d="M197.355,430.909l150,-259.808" style="fill:none;stroke-width:1px;stroke:#bababa;"/><path d="M265.368,470.176l150,-259.808" style="fill:none;stroke-width:1px;stroke:#bababa;"/></g></g><rect x="67.5" y="276.5" width="161" height="9" style="fill:none;stroke-width:2px;stroke-linecap:round;stroke:#000;"/><rect x="16" y="-7" width="40" height="39.13" style="fill:#fff;"/><clipPath id="_clip2"><rect x="16" y="-7" width="40" height="39.13"/></clipPath><g clip-path="url(#_clip2)"><g><path d="M-103.627,203.443l150,-259.808" style="fill:none;stroke-width:1px;stroke:#bababa;"/><path d="M-90.025,211.296l150,-259.808" style="fill:none;stroke-width:1px;stroke:#bababa;"/><path d="M-144.435,179.882l150,-259.807" style="fill:none;stroke-width:1px;stroke:#bababa;"/><path d="M-76.422,219.149l150,-259.807" style="fill:none;stroke-width:1px;stroke:#bababa;"/><path d="M-130.832,187.736l150,-259.808" style="fill:none;stroke-width:1px;stroke:#bababa;"/><path d="M-62.82,227.003l150,-259.808" style="fill:none;stroke-width:1px;stroke:#bababa;"/><path d="M-116.55,195.982l150,-259.808" style="fill:none;stroke-width:1px;stroke:#bababa;"/><path d="M-48.537,235.249l150,-259.808" style="fill:none;stroke-width:1px;stroke:#bababa;"/><path d="M-96.826,207.369l150,-259.807" style="fill:none;stroke-width:1px;stroke:#bababa;"/><path d="M-83.223,215.223l150,-259.808" style="fill:none;stroke-width:1px;stroke:#bababa;"/><path d="M-137.633,183.809l150,-259.808" style="fill:none;stroke-width:1px;stroke:#bababa;"/><path d="M-69.621,223.076l150,-259.808" style="fill:none;stroke-width:1px;stroke:#bababa;"/><path d="M-124.031,191.662l150,-259.807" style="fill:none;stroke-width:1px;stroke:#bababa;"/><path d="M-56.018,230.929l150,-259.807" style="fill:none;stroke-width:1px;stroke:#bababa;"/><path d="M-109.748,199.909l150,-259.808" style="fill:none;stroke-width:1px;stroke:#bababa;"/><path d="M-41.736,239.176l150,-259.808" style="fill:none;stroke-width:1px;stroke:#bababa;"/><path d="M-34.808,243.176l150,-259.808" style="fill:none;stroke-width:1px;stroke:#bababa;"/><path d="M33.205,282.443l150,-259.808" style="fill:none;stroke-width:1px;stroke:#bababa;"/><path d="M-21.205,251.029l150,-259.808" style="fill:none;stroke-width:1px;stroke:#bababa;"/><path d="M46.807,290.296l150,-259.808" style="fill:none;stroke-width:1px;stroke:#bababa;"/><path d="M-7.603,258.882l150,-259.807" style="fill:none;stroke-width:1px;stroke:#bababa;"/><path d="M60.41,298.149l150,-259.807" style="fill:none;stroke-width:1px;stroke:#bababa;"/><path d="M6,266.736l150,-259.808" style="fill:none;stroke-width:1px;stroke:#bababa;"/><path d="M74.012,306.003l150,-259.808" style="fill:none;stroke-width:1px;stroke:#bababa;"/><path d="M20.282,274.982l150,-259.808" style="fill:none;stroke-width:1px;stroke:#bababa;"/><path d="M88.295,314.249l150,-259.808" style="fill:none;stroke-width:1px;stroke:#bababa;"/><path d="M-28.006,247.102l150,-259.807" style="fill:none;stroke-width:1px;stroke:#bababa;"/><path d="M40.006,286.369l150,-259.807" style="fill:none;stroke-width:1px;stroke:#bababa;"/><path d="M-14.404,254.956l150,-259.808" style="fill:none;stroke-width:1px;stroke:#bababa;"/><path d="M53.609,294.223l150,-259.808" style="fill:none;stroke-width:1px;stroke:#bababa;"/><path d="M-0.801,262.809l150,-259.808" style="fill:none;stroke-width:1px;stroke:#bababa;"/><path d="M67.211,302.076l150,-259.808" style="fill:none;stroke-width:1px;stroke:#bababa;"/><path d="M12.801,270.662l150,-259.807" style="fill:none;stroke-width:1px;stroke:#bababa;"/><path d="M80.814,309.929l150,-259.807" style="fill:none;stroke-width:1px;stroke:#bababa;"/><path d="M27.084,278.909l150,-259.808" style="fill:none;stroke-width:1px;stroke:#bababa;"/><path d="M95.096,318.176l150,-259.808" style="fill:none;stroke-width:1px;stroke:#bababa;"/></g></g><path d="M56.174,-8.992l0.173,0.022l0.171,0.038l0.166,0.053l0.161,0.066l0.155,0.081l0.147,0.094l0.139,0.106l0.128,0.118l0.118,0.128l0.106,0.139l0.094,0.147l0.081,0.155l0.066,0.161l0.053,0.166l0.038,0.171l0.022,0.173l0.008,0.174l0,39.13l-0.008,0.175l-0.022,0.173l-0.038,0.17l-0.053,0.166l-0.066,0.162l-0.081,0.154l-0.094,0.148l-0.106,0.138l-0.118,0.129l-0.128,0.118l-0.139,0.106l-0.147,0.093l-0.155,0.081l-0.161,0.067l-0.166,0.052l-0.171,0.038l-0.173,0.023l-0.174,0.007l-40,0l-0.174,-0.007l-0.173,-0.023l-0.171,-0.038l-0.166,-0.052l-0.161,-0.067l-0.155,-0.081l-0.147,-0.093l-0.139,-0.106l-0.128,-0.118l-0.118,-0.129l-0.106,-0.138l-0.094,-0.148l-0.081,-0.154l-0.066,-0.162l-0.053,-0.166l-0.038,-0.17l-0.022,-0.173l-0.008,-0.175l0,-39.13l0.008,-0.174l0.022,-0.173l0.038,-0.171l0.053,-0.166l0.066,-0.161l0.081,-0.155l0.094,-0.147l0.106,-0.139l0.118,-0.128l0.128,-0.118l0.139,-0.106l0.147,-0.094l0.155,-0.081l0.161,-0.066l0.166,-0.053l0.171,-0.038l0.173,-0.022l0.174,-0.008l40,0l0.174,0.008ZM16,-7l0,39.13l40,0l0,-39.13l-40,0Z" style="fill:#000;"/><g><path d="M0,314l61,-27l175,-1l64,28l0,105l-300,0l0,-105Z" style="fill:#fff;"/><path d="M236.802,284.168l64,28l0.631,0.436l0.42,0.643l0.147,0.753l0,105l-0.152,0.765l-0.434,0.649l-0.649,0.434l-0.765,0.152l-300,0l-0.765,-0.152l-0.649,-0.434l-0.434,-0.649l-0.152,-0.765l0,-105l0.146,-0.751l0.417,-0.64l0.628,-0.438l61,-27l0.798,-0.171l175,-1l0.813,0.168ZM61,287l-61,27l0,105l300,0l0,-105l-64,-28l-175,1Z" style="fill:#000;"/></g><path d="M71.851,281c-12.625,-0.081 -22.851,-10.356 -22.851,-23c0,-12.694 10.306,-23 23,-23c0,0 152,0 152,0c12.694,0 23,10.306 23,23c0,12.694 -10.306,23 -23,23l-152,0l-0.149,0Z" style="fill:#fff;stroke-width:2px;stroke-linecap:round;stroke:#000;"/></svg>