<?xml version="1.0" standalone="no"?><!DOCTYPE svg PUBLIC "-//W3C//DTD SVG 1.1//EN" "http://www.w3.org/Graphics/SVG/1.1/DTD/svg11.dtd"><svg width="100%" height="100%" viewBox="0 0 300 419" version="1.1" xmlns="http://www.w3.org/2000/svg" xmlns:xlink="http://www.w3.org/1999/xlink" xml:space="preserve" style="fill-rule:evenodd;clip-rule:evenodd;stroke-linejoin:round;stroke-miterlimit:1.41421;"><path d="M44,429l0,-24l-17,-18l0,-106l17,-18l0,-27l-5,-54l-43,-3l0,250l48,0Z" style="fill:#fff;"/><clipPath id="_clip1"><path d="M44,429l0,-24l-17,-18l0,-106l17,-18l0,-27l-5,-54l-43,-3l0,250l48,0Z"/></clipPath><g clip-path="url(#_clip1)"><g><path d="M-146.627,369.171l150,-259.808" style="fill:none;stroke-width:1px;stroke:#b9b9b9;"/><path d="M-133.025,377.024l150,-259.807" style="fill:none;stroke-width:1px;stroke:#b9b9b9;"/><path d="M-119.422,384.878l150,-259.808" style="fill:none;stroke-width:1px;stroke:#b9b9b9;"/><path d="M-105.82,392.731l150,-259.808" style="fill:none;stroke-width:1px;stroke:#b9b9b9;"/><path d="M-91.537,400.977l150,-259.808" style="fill:none;stroke-width:1px;stroke:#b9b9b9;"/><path d="M-139.826,373.098l150,-259.808" style="fill:none;stroke-width:1px;stroke:#b9b9b9;"/><path d="M-126.223,380.951l150,-259.808" style="fill:none;stroke-width:1px;stroke:#b9b9b9;"/><path d="M-112.621,388.804l150,-259.807" style="fill:none;stroke-width:1px;stroke:#b9b9b9;"/><path d="M-99.018,396.658l150,-259.808" style="fill:none;stroke-width:1px;stroke:#b9b9b9;"/><path d="M-84.736,404.904l150,-259.808" style="fill:none;stroke-width:1px;stroke:#b9b9b9;"/><path d="M-77.808,408.904l150,-259.808" style="fill:none;stroke-width:1px;stroke:#b9b9b9;"/><path d="M-9.795,448.171l150,-259.808" style="fill:none;stroke-width:1px;stroke:#b9b9b9;"/><path d="M-64.205,416.757l150,-259.807" style="fill:none;stroke-width:1px;stroke:#b9b9b9;"/><path d="M3.807,456.024l150,-259.807" style="fill:none;stroke-width:1px;stroke:#b9b9b9;"/><path d="M-50.603,424.611l150,-259.808" style="fill:none;stroke-width:1px;stroke:#b9b9b9;"/><path d="M17.41,463.878l150,-259.808" style="fill:none;stroke-width:1px;stroke:#b9b9b9;"/><path d="M-37,432.464l150,-259.808" style="fill:none;stroke-width:1px;stroke:#b9b9b9;"/><path d="M31.012,471.731l150,-259.808" style="fill:none;stroke-width:1px;stroke:#b9b9b9;"/><path d="M-22.718,440.71l150,-259.808" style="fill:none;stroke-width:1px;stroke:#b9b9b9;"/><path d="M45.295,479.977l150,-259.808" style="fill:none;stroke-width:1px;stroke:#b9b9b9;"/><path d="M-71.006,412.831l150,-259.808" style="fill:none;stroke-width:1px;stroke:#b9b9b9;"/><path d="M-2.994,452.098l150,-259.808" style="fill:none;stroke-width:1px;stroke:#b9b9b9;"/><path d="M-57.404,420.684l150,-259.808" style="fill:none;stroke-width:1px;stroke:#b9b9b9;"/><path d="M10.609,459.951l150,-259.808" style="fill:none;stroke-width:1px;stroke:#b9b9b9;"/><path d="M-43.801,428.537l150,-259.807" style="fill:none;stroke-width:1px;stroke:#b9b9b9;"/><path d="M24.211,467.804l150,-259.807" style="fill:none;stroke-width:1px;stroke:#b9b9b9;"/><path d="M-30.199,436.391l150,-259.808" style="fill:none;stroke-width:1px;stroke:#b9b9b9;"/><path d="M37.814,475.658l150,-259.808" style="fill:none;stroke-width:1px;stroke:#b9b9b9;"/><path d="M-15.916,444.637l150,-259.808" style="fill:none;stroke-width:1px;stroke:#b9b9b9;"/><path d="M52.096,483.904l150,-259.808" style="fill:none;stroke-width:1px;stroke:#b9b9b9;"/></g></g><path d="M39,182l5,54l0,27l-17,18l0,106l17,18l0,24l-48,0l0,-250l43,3ZM-2,427l44,0l0,-21.205l-16.454,-17.422l-0.405,-0.634l-0.141,-0.739l0,-106l0.141,-0.739l0.405,-0.634l16.454,-17.422l0,-26.113l-4.835,-52.215l-39.165,-2.733l0,245.856Z" style="fill:#000;"/><path d="M320,402l-13,5l-39,-41l0,-85l-17,-18l0,-27l5,-54l63,-3l1,223Z" style="fill:#fff;"/><clipPath id="_clip2"><path d="M320,402l-13,5l-39,-41l0,-85l-17,-18l0,-27l5,-54l63,-3l1,223Z"/></clipPath><g clip-path="url(#_clip2)"><g><path d="M138.672,333.176l150,-259.808" style="fill:none;stroke-width:1px;stroke:#b9b9b9;"/><path d="M206.684,372.443l150,-259.808" style="fill:none;stroke-width:1px;stroke:#b9b9b9;"/><path d="M152.274,341.029l150,-259.808" style="fill:none;stroke-width:1px;stroke:#b9b9b9;"/><path d="M220.287,380.296l150,-259.808" style="fill:none;stroke-width:1px;stroke:#b9b9b9;"/><path d="M165.877,348.882l150,-259.807" style="fill:none;stroke-width:1px;stroke:#b9b9b9;"/><path d="M233.889,388.149l150,-259.807" style="fill:none;stroke-width:1px;stroke:#b9b9b9;"/><path d="M179.479,356.736l150,-259.808" style="fill:none;stroke-width:1px;stroke:#b9b9b9;"/><path d="M247.492,396.003l150,-259.808" style="fill:none;stroke-width:1px;stroke:#b9b9b9;"/><path d="M193.762,364.982l150,-259.808" style="fill:none;stroke-width:1px;stroke:#b9b9b9;"/><path d="M261.774,404.249l150,-259.808" style="fill:none;stroke-width:1px;stroke:#b9b9b9;"/><path d="M145.473,337.102l150,-259.807" style="fill:none;stroke-width:1px;stroke:#b9b9b9;"/><path d="M213.485,376.369l150,-259.807" style="fill:none;stroke-width:1px;stroke:#b9b9b9;"/><path d="M159.075,344.956l150,-259.808" style="fill:none;stroke-width:1px;stroke:#b9b9b9;"/><path d="M227.088,384.223l150,-259.808" style="fill:none;stroke-width:1px;stroke:#b9b9b9;"/><path d="M172.678,352.809l150,-259.808" style="fill:none;stroke-width:1px;stroke:#b9b9b9;"/><path d="M240.69,392.076l150,-259.808" style="fill:none;stroke-width:1px;stroke:#b9b9b9;"/><path d="M186.28,360.662l150,-259.807" style="fill:none;stroke-width:1px;stroke:#b9b9b9;"/><path d="M254.293,399.929l150,-259.807" style="fill:none;stroke-width:1px;stroke:#b9b9b9;"/><path d="M200.563,368.909l150,-259.808" style="fill:none;stroke-width:1px;stroke:#b9b9b9;"/><path d="M268.575,408.176l150,-259.808" style="fill:none;stroke-width:1px;stroke:#b9b9b9;"/><path d="M275.504,412.176l150,-259.808" style="fill:none;stroke-width:1px;stroke:#b9b9b9;"/><path d="M289.106,420.029l150,-259.808" style="fill:none;stroke-width:1px;stroke:#b9b9b9;"/><path d="M282.305,416.102l150,-259.807" style="fill:none;stroke-width:1px;stroke:#b9b9b9;"/><path d="M295.907,423.956l150,-259.808" style="fill:none;stroke-width:1px;stroke:#b9b9b9;"/></g></g><path d="M320,402l-13,5l-39,-41l0,-85l-17,-18l0,-27l5,-54l63,-3l1,223ZM257.831,183.915l-4.831,52.177l0,26.113l16.454,17.422l0.232,0.298l0.172,0.336l0.106,0.363l0.036,0.376l0,84.201l37.529,39.453l10.465,-4.025l-0.985,-219.532l-59.178,2.818Z" style="fill:#000;"/></svg>