<?xml version="1.0" standalone="no"?><!DOCTYPE svg PUBLIC "-//W3C//DTD SVG 1.1//EN" "http://www.w3.org/Graphics/SVG/1.1/DTD/svg11.dtd"><svg width="100%" height="100%" viewBox="0 0 300 419" version="1.1" xmlns="http://www.w3.org/2000/svg" xmlns:xlink="http://www.w3.org/1999/xlink" xml:space="preserve" style="fill-rule:evenodd;clip-rule:evenodd;stroke-linecap:round;stroke-linejoin:round;stroke-miterlimit:1.41421;"><path d="M268,-4.25c-1.518,0 -2.75,-1.232 -2.75,-2.75l-5.5,0c0,1.518 -1.232,2.75 -2.75,2.75l0,18.5c1.518,0 2.75,1.232 2.75,2.75l5.5,0c0,-1.518 1.232,-2.75 2.75,-2.75l0,-18.5Z" style="fill:#fff;stroke-width:2px;stroke:#000;"/><path d="M287.655,-4.25c-1.518,0 -2.75,-1.232 -2.75,-2.75l-5.5,0c0,1.518 -1.232,2.75 -2.75,2.75l0,27.5c1.518,0 2.75,1.232 2.75,2.75l5.5,0c0,-1.518 1.232,-2.75 2.75,-2.75l0,-27.5Z" style="fill:#fff;stroke-width:2px;stroke:#000;"/><rect x="13" y="-7" width="46" height="45" style="fill:#fff;"/><clipPath id="_clip1"><rect x="13" y="-7" width="46" height="45"/></clipPath><g clip-path="url(#_clip1)"><g><path d="M-95.316,152.171l150,-259.808" style="fill:none;stroke-width:1px;stroke-linecap:butt;stroke:#b9b9b9;"/><path d="M-149.726,120.757l150,-259.807" style="fill:none;stroke-width:1px;stroke-linecap:butt;stroke:#b9b9b9;"/><path d="M-81.713,160.024l150,-259.807" style="fill:none;stroke-width:1px;stroke-linecap:butt;stroke:#b9b9b9;"/><path d="M-136.123,128.611l150,-259.808" style="fill:none;stroke-width:1px;stroke-linecap:butt;stroke:#b9b9b9;"/><path d="M-68.111,167.878l150,-259.808" style="fill:none;stroke-width:1px;stroke-linecap:butt;stroke:#b9b9b9;"/><path d="M-122.521,136.464l150,-259.808" style="fill:none;stroke-width:1px;stroke-linecap:butt;stroke:#b9b9b9;"/><path d="M-54.508,175.731l150,-259.808" style="fill:none;stroke-width:1px;stroke-linecap:butt;stroke:#b9b9b9;"/><path d="M-108.238,144.71l150,-259.808" style="fill:none;stroke-width:1px;stroke-linecap:butt;stroke:#b9b9b9;"/><path d="M-40.226,183.977l150,-259.808" style="fill:none;stroke-width:1px;stroke-linecap:butt;stroke:#b9b9b9;"/><path d="M-88.515,156.098l150,-259.808" style="fill:none;stroke-width:1px;stroke-linecap:butt;stroke:#b9b9b9;"/><path d="M-142.925,124.684l150,-259.808" style="fill:none;stroke-width:1px;stroke-linecap:butt;stroke:#b9b9b9;"/><path d="M-74.912,163.951l150,-259.808" style="fill:none;stroke-width:1px;stroke-linecap:butt;stroke:#b9b9b9;"/><path d="M-129.322,132.537l150,-259.807" style="fill:none;stroke-width:1px;stroke-linecap:butt;stroke:#b9b9b9;"/><path d="M-61.31,171.804l150,-259.807" style="fill:none;stroke-width:1px;stroke-linecap:butt;stroke:#b9b9b9;"/><path d="M-115.72,140.391l150,-259.808" style="fill:none;stroke-width:1px;stroke-linecap:butt;stroke:#b9b9b9;"/><path d="M-47.707,179.658l150,-259.808" style="fill:none;stroke-width:1px;stroke-linecap:butt;stroke:#b9b9b9;"/><path d="M-101.437,148.637l150,-259.808" style="fill:none;stroke-width:1px;stroke-linecap:butt;stroke:#b9b9b9;"/><path d="M-33.425,187.904l150,-259.808" style="fill:none;stroke-width:1px;stroke-linecap:butt;stroke:#b9b9b9;"/><path d="M-26.496,191.904l150,-259.808" style="fill:none;stroke-width:1px;stroke-linecap:butt;stroke:#b9b9b9;"/><path d="M41.516,231.171l150,-259.808" style="fill:none;stroke-width:1px;stroke-linecap:butt;stroke:#b9b9b9;"/><path d="M-12.894,199.757l150,-259.807" style="fill:none;stroke-width:1px;stroke-linecap:butt;stroke:#b9b9b9;"/><path d="M55.119,239.024l150,-259.807" style="fill:none;stroke-width:1px;stroke-linecap:butt;stroke:#b9b9b9;"/><path d="M0.709,207.611l150,-259.808" style="fill:none;stroke-width:1px;stroke-linecap:butt;stroke:#b9b9b9;"/><path d="M68.721,246.878l150,-259.808" style="fill:none;stroke-width:1px;stroke-linecap:butt;stroke:#b9b9b9;"/><path d="M14.311,215.464l150,-259.808" style="fill:none;stroke-width:1px;stroke-linecap:butt;stroke:#b9b9b9;"/><path d="M82.324,254.731l150,-259.808" style="fill:none;stroke-width:1px;stroke-linecap:butt;stroke:#b9b9b9;"/><path d="M28.594,223.71l150,-259.808" style="fill:none;stroke-width:1px;stroke-linecap:butt;stroke:#b9b9b9;"/><path d="M96.606,262.977l150,-259.808" style="fill:none;stroke-width:1px;stroke-linecap:butt;stroke:#b9b9b9;"/><path d="M-19.695,195.831l150,-259.808" style="fill:none;stroke-width:1px;stroke-linecap:butt;stroke:#b9b9b9;"/><path d="M48.317,235.098l150,-259.808" style="fill:none;stroke-width:1px;stroke-linecap:butt;stroke:#b9b9b9;"/><path d="M-6.093,203.684l150,-259.808" style="fill:none;stroke-width:1px;stroke-linecap:butt;stroke:#b9b9b9;"/><path d="M61.92,242.951l150,-259.808" style="fill:none;stroke-width:1px;stroke-linecap:butt;stroke:#b9b9b9;"/><path d="M7.51,211.537l150,-259.807" style="fill:none;stroke-width:1px;stroke-linecap:butt;stroke:#b9b9b9;"/><path d="M75.522,250.804l150,-259.807" style="fill:none;stroke-width:1px;stroke-linecap:butt;stroke:#b9b9b9;"/><path d="M21.112,219.391l150,-259.808" style="fill:none;stroke-width:1px;stroke-linecap:butt;stroke:#b9b9b9;"/><path d="M89.125,258.658l150,-259.808" style="fill:none;stroke-width:1px;stroke-linecap:butt;stroke:#b9b9b9;"/><path d="M35.395,227.637l150,-259.808" style="fill:none;stroke-width:1px;stroke-linecap:butt;stroke:#b9b9b9;"/><path d="M103.407,266.904l150,-259.808" style="fill:none;stroke-width:1px;stroke-linecap:butt;stroke:#b9b9b9;"/></g></g><rect x="13" y="-7" width="46" height="45" style="fill:none;stroke-width:2px;stroke:#000;"/><path d="M72,17l140,0l0.181,0.001c15.37,0.099 27.819,12.831 27.819,28.499c0,15.729 -12.546,28.5 -28,28.5l-140,0l-28,-28.5l28,-28.5Z" style="fill:#fff;stroke-width:2px;stroke:#000;"/></svg>