<?xml version="1.0" standalone="no"?><!DOCTYPE svg PUBLIC "-//W3C//DTD SVG 1.1//EN" "http://www.w3.org/Graphics/SVG/1.1/DTD/svg11.dtd"><svg width="100%" height="100%" viewBox="0 0 300 419" version="1.1" xmlns="http://www.w3.org/2000/svg" xmlns:xlink="http://www.w3.org/1999/xlink" xml:space="preserve" style="fill-rule:evenodd;clip-rule:evenodd;stroke-linejoin:round;stroke-miterlimit:1.41421;"><path d="M0,366l25,-14l0,-52l45,-43l0,-24l-43,0l0,-28l-27,-14l0,175Z" style="fill:#fff;"/><clipPath id="_clip1"><path d="M0,366l25,-14l0,-52l45,-43l0,-24l-43,0l0,-28l-27,-14l0,175Z"/></clipPath><g clip-path="url(#_clip1)"><g><path d="M-113.627,348.899l150,-259.808" style="fill:none;stroke-width:1px;stroke:#bababa;"/><path d="M-100.025,356.753l150,-259.808" style="fill:none;stroke-width:1px;stroke:#bababa;"/><path d="M-86.422,364.606l150,-259.808" style="fill:none;stroke-width:1px;stroke:#bababa;"/><path d="M-140.832,333.192l150,-259.807" style="fill:none;stroke-width:1px;stroke:#bababa;"/><path d="M-72.82,372.459l150,-259.807" style="fill:none;stroke-width:1px;stroke:#bababa;"/><path d="M-126.55,341.438l150,-259.807" style="fill:none;stroke-width:1px;stroke:#bababa;"/><path d="M-58.537,380.705l150,-259.807" style="fill:none;stroke-width:1px;stroke:#bababa;"/><path d="M-106.826,352.826l150,-259.808" style="fill:none;stroke-width:1px;stroke:#bababa;"/><path d="M-93.223,360.679l150,-259.807" style="fill:none;stroke-width:1px;stroke:#bababa;"/><path d="M-147.633,329.266l150,-259.808" style="fill:none;stroke-width:1px;stroke:#bababa;"/><path d="M-79.621,368.533l150,-259.808" style="fill:none;stroke-width:1px;stroke:#bababa;"/><path d="M-134.031,337.119l150,-259.808" style="fill:none;stroke-width:1px;stroke:#bababa;"/><path d="M-66.018,376.386l150,-259.808" style="fill:none;stroke-width:1px;stroke:#bababa;"/><path d="M-119.748,345.365l150,-259.808" style="fill:none;stroke-width:1px;stroke:#bababa;"/><path d="M-51.736,384.632l150,-259.808" style="fill:none;stroke-width:1px;stroke:#bababa;"/><path d="M-44.808,388.632l150,-259.808" style="fill:none;stroke-width:1px;stroke:#bababa;"/><path d="M23.205,427.899l150,-259.808" style="fill:none;stroke-width:1px;stroke:#bababa;"/><path d="M-31.205,396.485l150,-259.807" style="fill:none;stroke-width:1px;stroke:#bababa;"/><path d="M36.807,435.753l150,-259.808" style="fill:none;stroke-width:1px;stroke:#bababa;"/><path d="M-17.603,404.339l150,-259.808" style="fill:none;stroke-width:1px;stroke:#bababa;"/><path d="M50.41,443.606l150,-259.808" style="fill:none;stroke-width:1px;stroke:#bababa;"/><path d="M-4,412.192l150,-259.807" style="fill:none;stroke-width:1px;stroke:#bababa;"/><path d="M64.012,451.459l150,-259.807" style="fill:none;stroke-width:1px;stroke:#bababa;"/><path d="M10.282,420.438l150,-259.807" style="fill:none;stroke-width:1px;stroke:#bababa;"/><path d="M78.295,459.705l150,-259.807" style="fill:none;stroke-width:1px;stroke:#bababa;"/><path d="M-38.006,392.559l150,-259.808" style="fill:none;stroke-width:1px;stroke:#bababa;"/><path d="M30.006,431.826l150,-259.808" style="fill:none;stroke-width:1px;stroke:#bababa;"/><path d="M-24.404,400.412l150,-259.807" style="fill:none;stroke-width:1px;stroke:#bababa;"/><path d="M43.609,439.679l150,-259.807" style="fill:none;stroke-width:1px;stroke:#bababa;"/><path d="M-10.801,408.266l150,-259.808" style="fill:none;stroke-width:1px;stroke:#bababa;"/><path d="M57.211,447.533l150,-259.808" style="fill:none;stroke-width:1px;stroke:#bababa;"/><path d="M2.801,416.119l150,-259.808" style="fill:none;stroke-width:1px;stroke:#bababa;"/><path d="M70.814,455.386l150,-259.808" style="fill:none;stroke-width:1px;stroke:#bababa;"/><path d="M17.084,424.365l150,-259.808" style="fill:none;stroke-width:1px;stroke:#bababa;"/><path d="M85.096,463.632l150,-259.808" style="fill:none;stroke-width:1px;stroke:#bababa;"/></g></g><path d="M0.211,189.011l0.365,0.074l0.345,0.139l27,14l0.306,0.197l0.266,0.248l0.216,0.292l0.16,0.327l0.098,0.35l0.033,0.362l0,26l41,0l0.347,0.03l0.337,0.091l0.316,0.147l0.286,0.2l0.246,0.246l0.2,0.286l0.147,0.316l0.091,0.337l0.03,0.347l0,24l-0.026,0.322l-0.078,0.313l-0.127,0.297l-0.173,0.273l-0.214,0.241l-44.382,42.409l0,51.145l-0.031,0.352l-0.093,0.34l-0.151,0.319l-0.204,0.288l-0.252,0.247l-0.292,0.199l-25,14l-0.316,0.142l-0.335,0.086l-0.346,0.027l-0.344,-0.034l-0.334,-0.092l-0.313,-0.149l-0.283,-0.2l-0.244,-0.246l-0.197,-0.285l-0.146,-0.314l-0.089,-0.335l-0.03,-0.345l0,-175l0.035,-0.37l0.102,-0.358l0.167,-0.332l0.226,-0.296l0.277,-0.249l0.318,-0.193l0.348,-0.131l0.366,-0.065l0.372,0.005ZM0,366l25,-14l0,-52l45,-43l0,-24l-43,0l0,-28l-27,-14l0,175Z" style="fill:#000;"/><path d="M300,189l-32,16l0,28l-42,0l0,25l43,40l0,54l31,16l0,-179Z" style="fill:#fff;"/><clipPath id="_clip2"><path d="M300,189l-32,16l0,28l-42,0l0,25l43,40l0,54l31,16l0,-179Z"/></clipPath><g clip-path="url(#_clip2)"><g><path d="M81.632,309.632l150,-259.808" style="fill:none;stroke-width:1px;stroke:#bababa;"/><path d="M149.645,348.899l150,-259.808" style="fill:none;stroke-width:1px;stroke:#bababa;"/><path d="M95.235,317.485l150,-259.807" style="fill:none;stroke-width:1px;stroke:#bababa;"/><path d="M163.247,356.753l150,-259.808" style="fill:none;stroke-width:1px;stroke:#bababa;"/><path d="M108.837,325.339l150,-259.808" style="fill:none;stroke-width:1px;stroke:#bababa;"/><path d="M176.85,364.606l150,-259.808" style="fill:none;stroke-width:1px;stroke:#bababa;"/><path d="M122.44,333.192l150,-259.807" style="fill:none;stroke-width:1px;stroke:#bababa;"/><path d="M190.452,372.459l150,-259.807" style="fill:none;stroke-width:1px;stroke:#bababa;"/><path d="M136.722,341.438l150,-259.807" style="fill:none;stroke-width:1px;stroke:#bababa;"/><path d="M204.735,380.705l150,-259.807" style="fill:none;stroke-width:1px;stroke:#bababa;"/><path d="M88.433,313.559l150,-259.808" style="fill:none;stroke-width:1px;stroke:#bababa;"/><path d="M156.446,352.826l150,-259.808" style="fill:none;stroke-width:1px;stroke:#bababa;"/><path d="M102.036,321.412l150,-259.807" style="fill:none;stroke-width:1px;stroke:#bababa;"/><path d="M170.048,360.679l150,-259.807" style="fill:none;stroke-width:1px;stroke:#bababa;"/><path d="M115.638,329.266l150,-259.808" style="fill:none;stroke-width:1px;stroke:#bababa;"/><path d="M183.651,368.533l150,-259.808" style="fill:none;stroke-width:1px;stroke:#bababa;"/><path d="M129.241,337.119l150,-259.808" style="fill:none;stroke-width:1px;stroke:#bababa;"/><path d="M197.253,376.386l150,-259.808" style="fill:none;stroke-width:1px;stroke:#bababa;"/><path d="M143.523,345.365l150,-259.808" style="fill:none;stroke-width:1px;stroke:#bababa;"/><path d="M211.536,384.632l150,-259.808" style="fill:none;stroke-width:1px;stroke:#bababa;"/><path d="M218.464,388.632l150,-259.808" style="fill:none;stroke-width:1px;stroke:#bababa;"/><path d="M286.477,427.899l150,-259.808" style="fill:none;stroke-width:1px;stroke:#bababa;"/><path d="M232.067,396.485l150,-259.807" style="fill:none;stroke-width:1px;stroke:#bababa;"/><path d="M300.079,435.753l150,-259.808" style="fill:none;stroke-width:1px;stroke:#bababa;"/><path d="M245.669,404.339l150,-259.808" style="fill:none;stroke-width:1px;stroke:#bababa;"/><path d="M259.272,412.192l150,-259.807" style="fill:none;stroke-width:1px;stroke:#bababa;"/><path d="M273.554,420.438l150,-259.807" style="fill:none;stroke-width:1px;stroke:#bababa;"/><path d="M225.265,392.559l150,-259.808" style="fill:none;stroke-width:1px;stroke:#bababa;"/><path d="M293.278,431.826l150,-259.808" style="fill:none;stroke-width:1px;stroke:#bababa;"/><path d="M238.868,400.412l150,-259.807" style="fill:none;stroke-width:1px;stroke:#bababa;"/><path d="M252.47,408.266l150,-259.808" style="fill:none;stroke-width:1px;stroke:#bababa;"/><path d="M266.073,416.119l150,-259.808" style="fill:none;stroke-width:1px;stroke:#bababa;"/><path d="M280.355,424.365l150,-259.808" style="fill:none;stroke-width:1px;stroke:#bababa;"/></g></g><path d="M300.545,187.076l0.345,0.133l0.314,0.194l0.273,0.249l0.223,0.294l0.165,0.331l0.101,0.355l0.034,0.368l0,179l-0.035,0.37l-0.102,0.357l-0.167,0.333l-0.225,0.295l-0.276,0.249l-0.318,0.193l-0.347,0.132l-0.366,0.064l-0.372,-0.004l-0.365,-0.073l-0.344,-0.139l-31,-16l-0.307,-0.196l-0.267,-0.248l-0.217,-0.292l-0.16,-0.328l-0.099,-0.35l-0.033,-0.363l0,-53.129l-42.362,-39.407l-0.221,-0.242l-0.179,-0.276l-0.131,-0.301l-0.08,-0.318l-0.027,-0.327l0,-25l0.03,-0.347l0.091,-0.337l0.147,-0.316l0.2,-0.286l0.246,-0.246l0.286,-0.2l0.316,-0.147l0.337,-0.091l0.347,-0.03l40,0l0,-26l0.034,-0.367l0.101,-0.354l0.164,-0.33l0.222,-0.295l0.272,-0.248l0.313,-0.195l32,-16l0.344,-0.134l0.363,-0.068l0.369,-0.001l0.363,0.068ZM268,205l0,28l-42,0l0,25l43,40l0,54l31,16l0,-179l-32,16Z" style="fill:#000;"/><g><path d="M84,221l126,0l19,14l0,21l-19,14l-126,0l-20,-14l0,-21l20,-14Z" style="fill:#fff;"/><path d="M210.316,219.025l0.308,0.075l0.293,0.123l0.269,0.167l19,14l0.236,0.204l0.201,0.238l0.162,0.266l0.118,0.288l0.073,0.303l0.024,0.311l0,21l-0.024,0.311l-0.073,0.303l-0.118,0.288l-0.162,0.266l-0.201,0.238l-0.236,0.204l-19,14l-0.269,0.167l-0.293,0.123l-0.308,0.075l-0.316,0.025l-126,0l-0.304,-0.023l-0.297,-0.07l-0.283,-0.113l-0.263,-0.156l-20,-14l-0.246,-0.203l-0.211,-0.241l-0.17,-0.27l-0.124,-0.295l-0.076,-0.31l-0.026,-0.319l0,-21l0.026,-0.319l0.076,-0.31l0.124,-0.295l0.17,-0.27l0.211,-0.241l0.246,-0.203l20,-14l0.263,-0.156l0.283,-0.113l0.297,-0.07l0.304,-0.023l126,0l0.316,0.025ZM84,221l-20,14l0,21l20,14l126,0l19,-14l0,-21l-19,-14l-126,0Z" style="fill:#000;"/></g><rect x="13" y="-7" width="46" height="45" style="fill:#fff;"/><clipPath id="_clip3"><rect x="13" y="-7" width="46" height="45"/></clipPath><g clip-path="url(#_clip3)"><g><path d="M-105.316,152.171l150,-259.808" style="fill:none;stroke-width:1px;stroke:#b9b9b9;"/><path d="M-91.713,160.024l150,-259.807" style="fill:none;stroke-width:1px;stroke:#b9b9b9;"/><path d="M-146.123,128.611l150,-259.808" style="fill:none;stroke-width:1px;stroke:#b9b9b9;"/><path d="M-78.111,167.878l150,-259.808" style="fill:none;stroke-width:1px;stroke:#b9b9b9;"/><path d="M-132.521,136.464l150,-259.808" style="fill:none;stroke-width:1px;stroke:#b9b9b9;"/><path d="M-64.508,175.731l150,-259.808" style="fill:none;stroke-width:1px;stroke:#b9b9b9;"/><path d="M-118.238,144.71l150,-259.808" style="fill:none;stroke-width:1px;stroke:#b9b9b9;"/><path d="M-50.226,183.977l150,-259.808" style="fill:none;stroke-width:1px;stroke:#b9b9b9;"/><path d="M-98.515,156.098l150,-259.808" style="fill:none;stroke-width:1px;stroke:#b9b9b9;"/><path d="M-84.912,163.951l150,-259.808" style="fill:none;stroke-width:1px;stroke:#b9b9b9;"/><path d="M-139.322,132.537l150,-259.807" style="fill:none;stroke-width:1px;stroke:#b9b9b9;"/><path d="M-71.31,171.804l150,-259.807" style="fill:none;stroke-width:1px;stroke:#b9b9b9;"/><path d="M-125.72,140.391l150,-259.808" style="fill:none;stroke-width:1px;stroke:#b9b9b9;"/><path d="M-57.707,179.658l150,-259.808" style="fill:none;stroke-width:1px;stroke:#b9b9b9;"/><path d="M-111.437,148.637l150,-259.808" style="fill:none;stroke-width:1px;stroke:#b9b9b9;"/><path d="M-43.425,187.904l150,-259.808" style="fill:none;stroke-width:1px;stroke:#b9b9b9;"/><path d="M-36.496,191.904l150,-259.808" style="fill:none;stroke-width:1px;stroke:#b9b9b9;"/><path d="M31.516,231.171l150,-259.808" style="fill:none;stroke-width:1px;stroke:#b9b9b9;"/><path d="M-22.894,199.757l150,-259.807" style="fill:none;stroke-width:1px;stroke:#b9b9b9;"/><path d="M45.119,239.024l150,-259.807" style="fill:none;stroke-width:1px;stroke:#b9b9b9;"/><path d="M-9.291,207.611l150,-259.808" style="fill:none;stroke-width:1px;stroke:#b9b9b9;"/><path d="M58.721,246.878l150,-259.808" style="fill:none;stroke-width:1px;stroke:#b9b9b9;"/><path d="M4.311,215.464l150,-259.808" style="fill:none;stroke-width:1px;stroke:#b9b9b9;"/><path d="M72.324,254.731l150,-259.808" style="fill:none;stroke-width:1px;stroke:#b9b9b9;"/><path d="M18.594,223.71l150,-259.808" style="fill:none;stroke-width:1px;stroke:#b9b9b9;"/><path d="M86.606,262.977l150,-259.808" style="fill:none;stroke-width:1px;stroke:#b9b9b9;"/><path d="M-29.695,195.831l150,-259.808" style="fill:none;stroke-width:1px;stroke:#b9b9b9;"/><path d="M38.317,235.098l150,-259.808" style="fill:none;stroke-width:1px;stroke:#b9b9b9;"/><path d="M-16.093,203.684l150,-259.808" style="fill:none;stroke-width:1px;stroke:#b9b9b9;"/><path d="M51.92,242.951l150,-259.808" style="fill:none;stroke-width:1px;stroke:#b9b9b9;"/><path d="M-2.49,211.537l150,-259.807" style="fill:none;stroke-width:1px;stroke:#b9b9b9;"/><path d="M65.522,250.804l150,-259.807" style="fill:none;stroke-width:1px;stroke:#b9b9b9;"/><path d="M11.112,219.391l150,-259.808" style="fill:none;stroke-width:1px;stroke:#b9b9b9;"/><path d="M79.125,258.658l150,-259.808" style="fill:none;stroke-width:1px;stroke:#b9b9b9;"/><path d="M25.395,227.637l150,-259.808" style="fill:none;stroke-width:1px;stroke:#b9b9b9;"/><path d="M93.407,266.904l150,-259.808" style="fill:none;stroke-width:1px;stroke:#b9b9b9;"/></g></g><path d="M59.185,-8.991l0.182,0.025l0.18,0.042l0.175,0.059l0.169,0.075l0.162,0.09l0.152,0.104l0.142,0.118l0.131,0.131l0.118,0.142l0.104,0.152l0.09,0.162l0.075,0.169l0.059,0.175l0.042,0.18l0.025,0.182l0.009,0.185l0,45l-0.009,0.185l-0.025,0.182l-0.042,0.18l-0.059,0.175l-0.075,0.169l-0.09,0.162l-0.104,0.152l-0.118,0.142l-0.131,0.131l-0.142,0.118l-0.152,0.104l-0.162,0.09l-0.169,0.075l-0.175,0.059l-0.18,0.042l-0.182,0.025l-0.185,0.009l-46,0l-0.185,-0.009l-0.182,-0.025l-0.18,-0.042l-0.175,-0.059l-0.169,-0.075l-0.162,-0.09l-0.152,-0.104l-0.142,-0.118l-0.131,-0.131l-0.118,-0.142l-0.104,-0.152l-0.09,-0.162l-0.075,-0.169l-0.059,-0.175l-0.042,-0.18l-0.025,-0.182l-0.009,-0.185l0,-45l0.009,-0.185l0.025,-0.182l0.042,-0.18l0.059,-0.175l0.075,-0.169l0.09,-0.162l0.104,-0.152l0.118,-0.142l0.131,-0.131l0.142,-0.118l0.152,-0.104l0.162,-0.09l0.169,-0.075l0.175,-0.059l0.18,-0.042l0.182,-0.025l0.185,-0.009l46,0l0.185,0.009ZM13,-7l0,45l46,0l0,-45l-46,0Z" style="fill:#000;"/></svg>